<svg xmlns="http://www.w3.org/2000/svg" xmlns:xlink="http://www.w3.org/1999/xlink" width="500" zoomAndPan="magnify" viewBox="0 0 375 374.999991" height="500" preserveAspectRatio="xMidYMid meet" version="1.0"><defs><g/><clipPath id="d5d1306e5d"><path d="M 23.082031 136 L 103 136 L 103 215.886719 L 23.082031 215.886719 Z M 23.082031 136 " clip-rule="nonzero"/></clipPath></defs><g clip-path="url(#d5d1306e5d)"><path fill="#259922" d="M 55.042969 138.800781 C 59.929688 135.648438 66.628906 135.640625 71.507812 138.804688 C 76.175781 141.597656 79.132812 146.878906 79.214844 152.304688 C 83.101562 152.34375 86.988281 152.285156 90.875 152.328125 C 92.964844 152.164062 94.941406 153.847656 95.058594 155.945312 C 97.695312 174.359375 100.324219 192.78125 102.90625 211.203125 C 103.449219 213.558594 101.402344 216.003906 98.976562 215.835938 C 75.164062 215.871094 51.34375 215.867188 27.523438 215.84375 C 25.109375 216 23.078125 213.578125 23.585938 211.234375 C 26.199219 192.820312 28.828125 174.398438 31.46875 155.992188 C 31.605469 153.90625 33.515625 152.179688 35.617188 152.328125 C 39.519531 152.277344 43.421875 152.351562 47.316406 152.320312 C 47.421875 146.886719 50.359375 141.597656 55.042969 138.800781 Z M 55.199219 152.289062 C 60.582031 152.351562 65.960938 152.320312 71.34375 152.289062 C 71.128906 148.089844 67.613281 144.25 63.269531 144.375 C 58.9375 144.25 55.410156 148.085938 55.199219 152.289062 Z M 55.199219 152.289062 " fill-opacity="1" fill-rule="nonzero"/></g><g fill="#ffffff" fill-opacity="1"><g transform="translate(39.748095, 207.035474)"><g><path d="M 4.828125 0 L 4.828125 -46.625 L 14 -46.625 L 33.078125 -15.484375 L 33.078125 -46.625 L 41.828125 -46.625 L 41.828125 0 L 32.375 0 L 13.546875 -30.40625 L 13.546875 0 Z M 4.828125 0 "/></g></g></g><g fill="#000000" fill-opacity="1"><g transform="translate(85.867853, 208.305758)"><g><path d="M 3.859375 0 L 3.859375 -37.75 L 31.859375 -37.75 L 31.859375 -31.390625 L 11.4375 -31.390625 L 11.4375 -23 L 30.4375 -23 L 30.4375 -16.609375 L 11.4375 -16.609375 L 11.4375 -6.390625 L 32.546875 -6.390625 L 32.546875 0 Z M 3.859375 0 "/></g></g></g><g fill="#000000" fill-opacity="1"><g transform="translate(120.588395, 206.637071)"><g><path d="M 0.40625 0 L 13.4375 -18.609375 L 0.984375 -36.15625 L 12.625 -36.15625 L 19.015625 -26.1875 L 25.78125 -36.15625 L 36.96875 -36.15625 L 24.734375 -19.015625 L 38.09375 0 L 26.328125 0 L 19.015625 -11.21875 L 11.625 0 Z M 0.40625 0 "/></g></g></g><g fill="#000000" fill-opacity="1"><g transform="translate(159.324166, 206.637071)"><g><path d="M 21.59375 -36.15625 L 21.59375 -28.5 L 15.03125 -28.5 L 15.03125 -13.9375 C 15.03125 -11.019531 15.09375 -9.316406 15.21875 -8.828125 C 15.34375 -8.335938 15.625 -7.925781 16.0625 -7.59375 C 16.507812 -7.269531 17.050781 -7.109375 17.6875 -7.109375 C 18.570312 -7.109375 19.851562 -7.414062 21.53125 -8.03125 L 22.34375 -0.609375 C 20.125 0.359375 17.597656 0.84375 14.765625 0.84375 C 12.742188 0.84375 10.960938 0.4375 9.421875 -0.375 C 7.878906 -1.1875 6.828125 -2.382812 6.265625 -3.96875 C 5.710938 -5.5625 5.4375 -8.488281 5.4375 -12.75 L 5.4375 -28.5 L 1.046875 -28.5 L 1.046875 -36.15625 L 5.4375 -36.15625 L 5.4375 -43.328125 L 15.03125 -48.90625 L 15.03125 -36.15625 Z M 21.59375 -36.15625 "/></g></g></g><g fill="#000000" fill-opacity="1"><g transform="translate(182.518013, 206.637071)"><g><path d="M 36.96875 -18.328125 L 46.734375 -15.265625 C 43.828125 -4.523438 36.929688 0.84375 26.046875 0.84375 C 19.410156 0.84375 13.953125 -1.421875 9.671875 -5.953125 C 5.398438 -10.484375 3.265625 -16.671875 3.265625 -24.515625 C 3.265625 -32.773438 5.410156 -39.207031 9.703125 -43.8125 C 14.003906 -48.414062 19.632812 -50.71875 26.59375 -50.71875 C 32.738281 -50.71875 37.71875 -48.898438 41.53125 -45.265625 C 43.789062 -43.140625 45.476562 -40.101562 46.59375 -36.15625 L 36.625 -33.703125 C 36.039062 -36.304688 34.816406 -38.351562 32.953125 -39.84375 C 31.097656 -41.332031 28.820312 -42.078125 26.125 -42.078125 C 22.40625 -42.078125 19.394531 -40.753906 17.09375 -38.109375 C 14.789062 -35.460938 13.640625 -31.160156 13.640625 -25.203125 C 13.640625 -18.941406 14.773438 -14.460938 17.046875 -11.765625 C 19.328125 -9.066406 22.285156 -7.71875 25.921875 -7.71875 C 28.617188 -7.71875 30.929688 -8.578125 32.859375 -10.296875 C 34.785156 -12.023438 36.15625 -14.703125 36.96875 -18.328125 Z M 36.96875 -18.328125 "/></g></g></g><g fill="#000000" fill-opacity="1"><g transform="translate(232.8167, 206.637071)"><g><path d="M 12.109375 -25.0625 L 3.46875 -26.671875 C 4.445312 -30.160156 6.117188 -32.738281 8.484375 -34.40625 C 10.859375 -36.070312 14.390625 -36.90625 19.078125 -36.90625 C 23.367188 -36.90625 26.554688 -36.40625 28.640625 -35.40625 C 30.722656 -34.40625 32.195312 -33.128906 33.0625 -31.578125 C 33.925781 -30.023438 34.359375 -27.1875 34.359375 -23.0625 L 34.21875 -11.84375 C 34.21875 -8.6875 34.363281 -6.351562 34.65625 -4.84375 C 34.945312 -3.332031 35.515625 -1.71875 36.359375 0 L 26.96875 0 C 26.71875 -0.539062 26.460938 -1.296875 26.203125 -2.265625 C 25.941406 -3.242188 25.78125 -3.816406 25.71875 -3.984375 C 22.40625 -0.765625 18.660156 0.84375 14.484375 0.84375 C 10.765625 0.84375 7.835938 -0.164062 5.703125 -2.1875 C 3.578125 -4.21875 2.515625 -6.785156 2.515625 -9.890625 C 2.515625 -11.929688 3 -13.738281 3.96875 -15.3125 C 4.945312 -16.894531 6.300781 -18.113281 8.03125 -18.96875 C 9.769531 -19.832031 12.316406 -20.59375 15.671875 -21.25 C 20.117188 -22.09375 23.207031 -22.851562 24.9375 -23.53125 L 24.9375 -24.515625 C 24.9375 -26.378906 24.476562 -27.691406 23.5625 -28.453125 C 22.65625 -29.210938 20.957031 -29.59375 18.46875 -29.59375 C 16.75 -29.59375 15.410156 -29.253906 14.453125 -28.578125 C 13.503906 -27.910156 12.722656 -26.738281 12.109375 -25.0625 Z M 24.9375 -17.34375 C 23.726562 -16.9375 21.785156 -16.445312 19.109375 -15.875 C 16.429688 -15.3125 14.707031 -14.757812 13.9375 -14.21875 C 12.675781 -13.332031 12.046875 -12.207031 12.046875 -10.84375 C 12.046875 -9.507812 12.539062 -8.351562 13.53125 -7.375 C 14.53125 -6.40625 15.800781 -5.921875 17.34375 -5.921875 C 18.40625 -5.921875 19.441406 -6.132812 20.453125 -6.5625 C 21.460938 -6.988281 22.3125 -7.535156 23 -8.203125 C 23.695312 -8.878906 24.191406 -9.632812 24.484375 -10.46875 C 24.785156 -11.3125 24.9375 -12.976562 24.9375 -15.46875 Z M 24.9375 -17.34375 "/></g></g></g><g fill="#000000" fill-opacity="1"><g transform="translate(271.55247, 206.637071)"><g><path d="M 14.15625 0 L 4.59375 0 L 4.59375 -36.15625 L 13.4375 -36.15625 L 13.4375 -30.984375 C 14.976562 -33.410156 16.347656 -35.003906 17.546875 -35.765625 C 18.753906 -36.523438 20.148438 -36.90625 21.734375 -36.90625 C 23.867188 -36.90625 25.953125 -36.300781 27.984375 -35.09375 L 25 -26.796875 C 23.4375 -27.835938 21.953125 -28.359375 20.546875 -28.359375 C 19.203125 -28.359375 18.066406 -27.984375 17.140625 -27.234375 C 16.210938 -26.492188 15.484375 -25.160156 14.953125 -23.234375 C 14.421875 -21.304688 14.15625 -17.28125 14.15625 -11.15625 Z M 14.15625 0 "/></g></g></g><g fill="#000000" fill-opacity="1"><g transform="translate(298.657309, 206.637071)"><g><path d="M 21.59375 -36.15625 L 21.59375 -28.5 L 15.03125 -28.5 L 15.03125 -13.9375 C 15.03125 -11.019531 15.09375 -9.316406 15.21875 -8.828125 C 15.34375 -8.335938 15.625 -7.925781 16.0625 -7.59375 C 16.507812 -7.269531 17.050781 -7.109375 17.6875 -7.109375 C 18.570312 -7.109375 19.851562 -7.414062 21.53125 -8.03125 L 22.34375 -0.609375 C 20.125 0.359375 17.597656 0.84375 14.765625 0.84375 C 12.742188 0.84375 10.960938 0.4375 9.421875 -0.375 C 7.878906 -1.1875 6.828125 -2.382812 6.265625 -3.96875 C 5.710938 -5.5625 5.4375 -8.488281 5.4375 -12.75 L 5.4375 -28.5 L 1.046875 -28.5 L 1.046875 -36.15625 L 5.4375 -36.15625 L 5.4375 -43.328125 L 15.03125 -48.90625 L 15.03125 -36.15625 Z M 21.59375 -36.15625 "/></g></g></g></svg>